<svg width="116" height="114" viewBox="0 0 116 114" fill="none" xmlns="http://www.w3.org/2000/svg">
<g clip-path="url(#clip0_1_194)">
<path fill-rule="evenodd" clip-rule="evenodd" d="M58 -1.0276e-07C44.3426 -0.00461683 31.1295 4.93221 20.7264 13.9266C10.3232 22.921 3.40939 35.3856 1.22267 49.0888C-0.96406 62.792 1.71913 76.8389 8.79185 88.7147C15.8646 100.59 26.865 109.519 39.8235 113.903C42.68 114.445 43.7464 112.635 43.7464 111.087C43.7464 109.693 43.6988 105.096 43.6702 100.209C27.6742 103.741 24.3036 93.3176 24.3036 93.3176C21.6852 86.5428 17.9147 84.762 17.9147 84.762C12.6969 81.1327 18.3051 81.2101 18.3051 81.2101C24.0846 81.6263 27.1219 87.23 27.1219 87.23C32.254 96.163 40.5757 93.5886 43.8511 92.0691C44.3748 88.2946 45.8601 85.7202 47.5073 84.2588C34.7772 82.7973 21.3043 77.784 21.3043 55.3886C21.2189 49.5717 23.3436 43.9455 27.2362 39.6808C26.6363 38.2097 24.6654 32.2673 27.7884 24.1956C27.7884 24.1956 32.6158 22.6277 43.6035 30.1864C53.0314 27.5668 62.9781 27.5668 72.4059 30.1864C83.3365 22.6664 88.202 24.1956 88.202 24.1956C91.325 32.2479 89.3636 38.1903 88.7637 39.6808C92.6457 43.9431 94.7633 49.5615 94.6766 55.3692C94.6766 77.8227 81.2323 82.7586 68.4259 84.2104C70.4826 86.0202 72.3202 89.5818 72.3202 95.0306C72.3202 102.851 72.2631 109.151 72.2631 111.067C72.2631 112.626 73.2914 114.445 76.205 113.874C89.1447 109.474 100.123 100.54 107.179 88.6682C114.234 76.7968 116.906 62.762 114.718 49.0721C112.529 35.3823 105.622 22.9297 95.2319 13.9399C84.8416 4.95014 71.6447 0.00913911 58 -1.0276e-07V-1.0276e-07Z" fill="#191717"/>
<path d="M22.2756 83.9103C22.1518 84.2007 21.7043 84.2878 21.3234 84.0942C20.9426 83.9007 20.6664 83.5039 20.7997 83.2135C20.933 82.9232 21.3806 82.8361 21.7519 83.0296C22.1232 83.2232 22.4089 83.62 22.266 83.9103H22.2756Z" fill="#191717"/>
<path d="M24.6082 86.5525C24.3321 86.8138 23.7989 86.688 23.4276 86.2815C23.254 86.1388 23.1406 85.9341 23.1105 85.7093C23.0804 85.4844 23.136 85.2564 23.2657 85.0717C23.5514 84.8104 24.0655 84.9362 24.4464 85.3427C24.8272 85.7492 24.8939 86.3105 24.6082 86.5525Z" fill="#191717"/>
<path d="M26.8744 89.9205C26.5221 90.1722 25.9223 89.9205 25.589 89.4173C25.2558 88.914 25.2367 88.2752 25.589 88.0236C25.9413 87.772 26.5412 88.0236 26.8744 88.5172C27.2077 89.0108 27.2267 89.6689 26.8744 89.9205V89.9205Z" fill="#191717"/>
<path d="M30.0165 93.1724C29.9007 93.2576 29.7693 93.3185 29.6301 93.3515C29.4909 93.3845 29.3466 93.389 29.2056 93.3646C29.0647 93.3403 28.9299 93.2877 28.8092 93.2098C28.6885 93.1319 28.5842 93.0304 28.5026 92.9111C27.998 92.4369 27.8551 91.7691 28.1789 91.4207C28.5026 91.0722 29.131 91.1594 29.6642 91.6433C30.1974 92.1272 30.3117 92.7853 29.9784 93.1337L30.0165 93.1724Z" fill="#191717"/>
<path d="M34.2631 95.0597C34.1203 95.5146 33.4823 95.7275 32.8254 95.5339C32.1684 95.3404 31.7494 94.7984 31.8732 94.3338C31.997 93.8693 32.654 93.6563 33.3109 93.8596C33.9679 94.0628 34.3869 94.5951 34.2631 95.0597Z" fill="#191717"/>
<path d="M38.9667 95.4081C38.9667 95.892 38.4335 96.2888 37.7479 96.2985C37.0624 96.3082 36.5101 95.9307 36.5006 95.4468C36.4911 94.9629 37.0338 94.5661 37.7289 94.5564C38.4239 94.5467 38.9667 94.9339 38.9667 95.4081V95.4081Z" fill="#191717"/>
<path d="M43.3465 94.6532C43.4322 95.1274 42.9561 95.621 42.2801 95.7372C41.6041 95.8533 40.9947 95.5726 40.909 95.0984C40.8233 94.6242 41.3089 94.1306 41.9754 94.0144C42.6419 93.8983 43.2608 94.179 43.3465 94.6532Z" fill="#191717"/>
</g>
<defs>
<clipPath id="clip0_1_194">
<rect width="115" height="114" fill="white" transform="translate(0.5)"/>
</clipPath>
</defs>
</svg>
